<svg xmlns="http://www.w3.org/2000/svg" width="25" height="25" viewBox="0 0 19.44 19"><g id="Group_13" data-name="Group 13" transform="translate(-184 -1937.5)"><path id="Path_763" data-name="Path 763" d="M189.314,1945.88a1.4,1.4,0,0,1-1.048-.47l-1.337-1.51h-1.3l1.157,2.51a1.421,1.421,0,0,1,0,1.18l-1.157,2.51h1.2l1.337-1.9a1.387,1.387,0,0,1,1.146-.6h3.969l-1.035,2.03-2.337,4.6a.6.6,0,0,0,.535.87h1.062a.6.6,0,0,0,.478-.24l4.916-6.46a1.393,1.393,0,0,1,1.114-.55h3.174a.85.85,0,1,0,0-1.7h-3.174a1.393,1.393,0,0,1-1.114-.55l-4.916-6.46a.6.6,0,0,0-.478-.24h-.951a.6.6,0,0,0-.527.89l2.2,4.02,1.133,2.07h-4.047Zm0-1.4-1.456-1.64a.985.985,0,0,0-.749-.34H185a1,1,0,0,0-.908,1.42l1.418,3.08-1.418,3.08a1,1,0,0,0,.908,1.42h2.038a1,1,0,0,0,.819-.43l1.456-2.07H191l-.712,1.4-1.625,3.19a2,2,0,0,0,1.783,2.91h1.062a1.993,1.993,0,0,0,1.592-.79l.922-1.21H196a1.5,1.5,0,0,0,1.5-1.5v-1a1.494,1.494,0,0,0-.641-1.23l1.157-1.52h3.174a2.25,2.25,0,1,0,0-4.5h-3.174l-1.157-1.52a1.494,1.494,0,0,0,.641-1.23v-1a1.5,1.5,0,0,0-1.5-1.5h-1.979l-.921-1.21a1.993,1.993,0,0,0-1.592-.79h-.952a2,2,0,0,0-1.754,2.96l1.433,2.62.765,1.4h-1.686Zm6.938,7.09-1.469,1.93H196a.5.5,0,0,0,.5-.5v-1A.494.494,0,0,0,196.252,1951.57Zm.248-9.57a.507.507,0,0,1-.248.43l-1.47-1.93H196a.5.5,0,0,1,.5.5Z" fill="#7c8594" fill-rule="evenodd"></path></g></svg>