<svg xmlns="http://www.w3.org/2000/svg" width="20.33" height="21.12" viewBox="0 0 20.33 21.12"><g id="Group_12" data-name="Group 12" transform="translate(-423.835 -1720.04)"><path id="Path_744" data-name="Path 744" d="M429.462,1721.92a6.419,6.419,0,0,1,10.957,4.53,6.148,6.148,0,0,1-.278,1.97,5.207,5.207,0,0,1-.951,1.69l-.02.03-4.565,5.27a.812.812,0,0,1-1.209,0l-4.565-5.27c-.007-.01-.014-.02-.02-.03a5.188,5.188,0,0,1-.951-1.69,6.121,6.121,0,0,1-.278-1.97A6.4,6.4,0,0,1,429.462,1721.92Zm4.538-.28a4.816,4.816,0,0,0-4.818,4.81,4.579,4.579,0,0,0,.2,1.47,3.791,3.791,0,0,0,.671,1.18l3.95,4.56,3.951-4.56a3.811,3.811,0,0,0,.671-1.18,4.608,4.608,0,0,0,.2-1.47,4.816,4.816,0,0,0-4.819-4.81Zm-5.811,12.01a.8.8,0,0,1-.452,1.04,5.8,5.8,0,0,0-1.8,1.04,1.04,1.04,0,0,0-.015,1.77,5.8,5.8,0,0,0,1.754,1.03,19.935,19.935,0,0,0,12.65,0,5.8,5.8,0,0,0,1.754-1.03,1.04,1.04,0,0,0-.015-1.77,5.8,5.8,0,0,0-1.8-1.04.8.8,0,1,1,.585-1.49,7.189,7.189,0,0,1,2.308,1.36,2.6,2.6,0,0,1,.022,4.1,7.148,7.148,0,0,1-2.259,1.35,21.389,21.389,0,0,1-13.838,0,7.148,7.148,0,0,1-2.259-1.35,2.6,2.6,0,0,1,.023-4.1,7.172,7.172,0,0,1,2.307-1.36A.8.8,0,0,1,428.189,1733.65Zm5.029-7.2a.782.782,0,1,1,.782.79A.781.781,0,0,1,433.218,1726.45Zm.782-2.18a2.185,2.185,0,1,0,2.182,2.18A2.184,2.184,0,0,0,434,1724.27Z" fill="#7c8594" fill-rule="evenodd"></path></g></svg>