
<svg width="26" height="26" viewBox="0 0 26 26" fill="none" xmlns="http://www.w3.org/2000/svg">
<path d="M22.7002 10.8677L22.1514 9.49561L21.1782 7.0625C20.3428 4.97412 18.3501 3.625 16.1006 3.625H9.89941C7.65039 3.625 5.65723 4.97412 4.82178 7.0625L3.84863 9.49561L3.2998 10.8677C2.12207 11.3154 1.28125 12.4463 1.28125 13.7812V16.125C1.28125 16.9121 1.58203 17.6226 2.0625 18.1724V20.8125C2.0625 21.6753 2.76221 22.375 3.625 22.375H5.1875C6.05029 22.375 6.75 21.6753 6.75 20.8125V19.25H19.25V20.8125C19.25 21.6753 19.9497 22.375 20.8125 22.375H22.375C23.2378 22.375 23.9375 21.6753 23.9375 20.8125V18.1724C24.418 17.623 24.7188 16.9126 24.7188 16.125V13.7812C24.7188 12.4463 23.8779 11.3154 22.7002 10.8677ZM7.72314 8.22314C8.0791 7.3335 8.94092 6.75 9.89941 6.75H16.1006C17.0591 6.75 17.9209 7.3335 18.2769 8.22314L19.25 10.6562H6.75L7.72314 8.22314ZM5.1875 16.1152C4.25 16.1152 3.625 15.4922 3.625 14.5576C3.625 13.623 4.25 13 5.1875 13C6.125 13 7.53125 14.4019 7.53125 15.3364C7.53125 16.271 6.125 16.1152 5.1875 16.1152ZM20.8125 16.1152C19.875 16.1152 18.4688 16.271 18.4688 15.3364C18.4688 14.4019 19.875 13 20.8125 13C21.75 13 22.375 13.623 22.375 14.5576C22.375 15.4922 21.75 16.1152 20.8125 16.1152Z" fill="#7C8594"/>
</svg>
