<svg width="24" height="24" viewBox="0 0 24 24" fill="none" xmlns="http://www.w3.org/2000/svg"><path fill-rule="evenodd" clip-rule="evenodd" d="M8.80475 5.8114C8.8995 5.75159 9.01928 5.7449 9.12285 5.7967L15.6903 9.08147C15.8633 9.16798 16.0643 9.17908 16.2457 9.11214L19.6102 7.87075C20.0835 7.69612 20.4411 7.77423 20.7161 7.95437C21.0154 8.15048 21.2679 8.50523 21.4018 8.94226C21.5356 9.37911 21.5288 9.82718 21.3962 10.1713C21.2727 10.4916 21.0366 10.7427 20.6206 10.8542L6.51618 14.6334C5.98901 14.7747 5.42973 14.5716 5.11599 14.1251L3.14824 11.3242L3.75032 11.1629L6.47801 12.6171C6.65622 12.7121 6.86678 12.7255 7.0556 12.6539L11.9028 10.8152C12.1262 10.7304 12.291 10.5374 12.3398 10.3035C12.3885 10.0695 12.3145 9.8268 12.1435 9.65982L8.43877 6.04242L8.80475 5.8114L8.43111 5.21946L8.80475 5.8114ZM9.7491 4.54458L9.44444 5.15371L9.74911 4.54458L16.0455 7.69377L19.1256 6.5573C20.0086 6.23152 20.8314 6.35618 21.4833 6.78333C22.1109 7.19452 22.5319 7.85156 22.7404 8.53216C22.9489 9.21293 22.9671 9.98832 22.7025 10.6748C22.4287 11.3851 21.8589 11.9717 20.9829 12.2065L6.87852 15.9857C5.78363 16.2791 4.62207 15.8574 3.97044 14.9299L1.42704 11.3097C1.29563 11.1226 1.26383 10.8832 1.34184 10.6684C1.41985 10.4535 1.59784 10.2903 1.81864 10.2311L3.65474 9.73912C3.82616 9.69318 4.00863 9.71408 4.16523 9.79756L6.85619 11.2322L10.3806 9.89521L6.82627 6.42464C6.67298 6.27497 6.59668 6.06334 6.61917 5.85029C6.64167 5.63724 6.76049 5.44622 6.94166 5.33186L8.05746 4.62753C8.56855 4.30491 9.2094 4.27464 9.7491 4.54458ZM1.35479 19.6565C1.35479 19.2699 1.66819 18.9565 2.05479 18.9565H5.05479C5.44139 18.9565 5.75479 19.2699 5.75479 19.6565C5.75479 20.0431 5.44139 20.3565 5.05479 20.3565H2.05479C1.66819 20.3565 1.35479 20.0431 1.35479 19.6565ZM6.35479 19.6565C6.35479 19.2699 6.66819 18.9565 7.05479 18.9565L22.0548 18.9565C22.4414 18.9565 22.7548 19.2699 22.7548 19.6565C22.7548 20.0431 22.4414 20.3565 22.0548 20.3565L7.05479 20.3565C6.66819 20.3565 6.35479 20.0431 6.35479 19.6565Z" fill="#7C8594"></path></svg>