<svg width="24" height="24" viewBox="0 0 24 24" fill="none" xmlns="http://www.w3.org/2000/svg">
<path fill-rule="evenodd" clip-rule="evenodd" d="M20.707 6.293C20.8945 6.48052 20.9998 6.73483 20.9998 7C20.9998 7.26516 20.8945 7.51947 20.707 7.707L16.707 11.707C16.5671 11.8468 16.389 11.942 16.195 11.9806C16.0011 12.0191 15.8 11.9993 15.6173 11.9237C15.4346 11.848 15.2785 11.7199 15.1686 11.5555C15.0587 11.391 15 11.1977 15 11L15 8L4 8C3.73478 8 3.48043 7.89464 3.29289 7.7071C3.10536 7.51957 3 7.26521 3 7C3 6.73478 3.10536 6.48043 3.29289 6.29289C3.48043 6.10535 3.73478 6 4 6L15 6L15 3C15 2.80225 15.0587 2.60895 15.1686 2.44454C15.2785 2.28013 15.4346 2.15199 15.6173 2.07632C15.8 2.00065 16.0011 1.98085 16.195 2.01941C16.389 2.05798 16.5671 2.15319 16.707 2.293L20.707 6.293ZM3.293 16.293C3.10553 16.4805 3.00021 16.7348 3.00021 17C3.00021 17.2652 3.10553 17.5195 3.293 17.707L7.293 21.707C7.43285 21.8468 7.61102 21.942 7.80497 21.9806C7.99892 22.0192 8.19995 21.9993 8.38265 21.9237C8.56535 21.848 8.72152 21.7199 8.8314 21.5555C8.94129 21.391 8.99996 21.1977 9 21L9 18L20 18C20.2652 18 20.5196 17.8946 20.7071 17.7071C20.8946 17.5196 21 17.2652 21 17C21 16.7348 20.8946 16.4804 20.7071 16.2929C20.5196 16.1054 20.2652 16 20 16L9 16L9 13C8.99996 12.8022 8.94129 12.6089 8.8314 12.4445C8.72152 12.2801 8.56535 12.152 8.38265 12.0763C8.19995 12.0006 7.99892 11.9808 7.80497 12.0194C7.61102 12.058 7.43285 12.1532 7.293 12.293L3.293 16.293Z" fill="black"/>
</svg>
